<?xml version="1.0" encoding="UTF-8"?>
<!DOCTYPE svg PUBLIC "-//W3C//DTD SVG 1.1//EN" "http://www.w3.org/Graphics/SVG/1.1/DTD/svg11.dtd">
<svg xmlns="http://www.w3.org/2000/svg" version="1.1" width="32px" height="32px" style="shape-rendering:geometricPrecision; text-rendering:geometricPrecision; image-rendering:optimizeQuality; fill-rule:evenodd; clip-rule:evenodd" xmlns:xlink="http://www.w3.org/1999/xlink">
<g><path style="opacity:0.895" fill="#537e5d" d="M 1.5,-0.5 C 3.5,-0.5 5.5,-0.5 7.5,-0.5C 5.96462,1.05191 4.13128,2.38525 2,3.5C 1.33333,11.5 1.33333,19.5 2,27.5C 4.82627,29.3398 7.99294,30.0065 11.5,29.5C 11.5,27.1667 11.5,24.8333 11.5,22.5C 7.77468,22.2204 6.60802,20.2204 8,16.5C 9,15.8333 10,15.1667 11,14.5C 11.5063,6.5807 15.5063,3.91403 23,6.5C 23.7975,8.25883 23.6309,9.9255 22.5,11.5C 17.3059,13.1695 17.3059,14.6695 22.5,16C 24.6609,20.4481 23.3276,22.6148 18.5,22.5C 18.5,25.5 18.5,28.5 18.5,31.5C 12.8333,31.5 7.16667,31.5 1.5,31.5C 1.16667,30.5 0.5,29.8333 -0.5,29.5C -0.5,20.1667 -0.5,10.8333 -0.5,1.5C 0.5,1.16667 1.16667,0.5 1.5,-0.5 Z"/></g>
<g><path style="opacity:0.881" fill="#507b5c" d="M 11.5,-0.5 C 17.5,-0.5 23.5,-0.5 29.5,-0.5C 29.8333,0.5 30.5,1.16667 31.5,1.5C 31.5,10.8333 31.5,20.1667 31.5,29.5C 30.5,29.8333 29.8333,30.5 29.5,31.5C 27.1667,31.5 24.8333,31.5 22.5,31.5C 24.4079,29.976 26.5746,28.6426 29,27.5C 29.6667,19.5 29.6667,11.5 29,3.5C 28.5,3 28,2.5 27.5,2C 21.7401,2.12229 16.4068,1.28896 11.5,-0.5 Z"/></g>
<g><path style="opacity:1" fill="#c7e99a" d="M 16.5,7.5 C 22.3958,7.84806 22.7292,9.01472 17.5,11C 15.3986,15.3159 16.732,17.8159 21.5,18.5C 20.3315,20.2174 18.6648,20.8841 16.5,20.5C 16.5,23.5 16.5,26.5 16.5,29.5C 15.5,29.5 14.5,29.5 13.5,29.5C 13.5,26.5 13.5,23.5 13.5,20.5C 11.6536,20.7778 10.3202,20.1112 9.5,18.5C 10.6888,17.5713 12.0222,17.238 13.5,17.5C 12.8578,13.5251 13.8578,10.1918 16.5,7.5 Z"/></g>
</svg>
