<?xml version="1.0" encoding="UTF-8"?>
<!DOCTYPE svg PUBLIC "-//W3C//DTD SVG 1.1//EN" "http://www.w3.org/Graphics/SVG/1.1/DTD/svg11.dtd">
<svg xmlns="http://www.w3.org/2000/svg" version="1.1" width="32px" height="32px" style="shape-rendering:geometricPrecision; text-rendering:geometricPrecision; image-rendering:optimizeQuality; fill-rule:evenodd; clip-rule:evenodd" xmlns:xlink="http://www.w3.org/1999/xlink">
<g><path style="opacity:0.887" fill="#507c5c" d="M 1.5,-0.5 C 3.5,-0.5 5.5,-0.5 7.5,-0.5C 5.96462,1.05191 4.13128,2.38525 2,3.5C 1.33333,11.5 1.33333,19.5 2,27.5C 2.5,28 3,28.5 3.5,29C 8.93251,28.8816 13.9325,29.7149 18.5,31.5C 12.8333,31.5 7.16667,31.5 1.5,31.5C 1.16667,30.5 0.5,29.8333 -0.5,29.5C -0.5,20.1667 -0.5,10.8333 -0.5,1.5C 0.5,1.16667 1.16667,0.5 1.5,-0.5 Z"/></g>
<g><path style="opacity:0.881" fill="#507b5c" d="M 11.5,-0.5 C 17.5,-0.5 23.5,-0.5 29.5,-0.5C 29.8333,0.5 30.5,1.16667 31.5,1.5C 31.5,10.8333 31.5,20.1667 31.5,29.5C 30.5,29.8333 29.8333,30.5 29.5,31.5C 27.1667,31.5 24.8333,31.5 22.5,31.5C 24.4079,29.976 26.5746,28.6426 29,27.5C 29.6667,19.5 29.6667,11.5 29,3.5C 28.5,3 28,2.5 27.5,2C 21.7401,2.12229 16.4068,1.28896 11.5,-0.5 Z"/></g>
<g><path style="opacity:0.766" fill="#527d5c" d="M 6.5,4.5 C 12.5092,4.33385 18.5092,4.50051 24.5,5C 25,5.5 25.5,6 26,6.5C 26.6667,12.5 26.6667,18.5 26,24.5C 25.5,25 25,25.5 24.5,26C 18.5,26.6667 12.5,26.6667 6.5,26C 6,25.5 5.5,25 5,24.5C 4.33333,18.5 4.33333,12.5 5,6.5C 5.71719,5.9558 6.21719,5.28913 6.5,4.5 Z M 13.5,12.5 C 18.1585,12.0146 19.4919,13.848 17.5,18C 12.7282,18.8104 11.3948,16.9771 13.5,12.5 Z"/></g>
<g><path style="opacity:1" fill="#c0e296" d="M 8.5,6.5 C 13.1785,6.33418 17.8452,6.50085 22.5,7C 23,7.5 23.5,8 24,8.5C 24.6667,13.1667 24.6667,17.8333 24,22.5C 23.5,23 23,23.5 22.5,24C 17.8333,24.6667 13.1667,24.6667 8.5,24C 8,23.5 7.5,23 7,22.5C 5.94555,16.8855 6.44555,11.5522 8.5,6.5 Z M 13.5,12.5 C 11.3948,16.9771 12.7282,18.8104 17.5,18C 19.4919,13.848 18.1585,12.0146 13.5,12.5 Z"/></g>
<g><path style="opacity:1" fill="#699369" d="M 20.5,8.5 C 22.337,8.63945 22.6704,9.30612 21.5,10.5C 20.7025,10.0431 20.3691,9.37644 20.5,8.5 Z"/></g>
<g><path style="opacity:0.739" fill="#527e5d" d="M 12.5,10.5 C 20.4863,9.99804 22.4863,13.1647 18.5,20C 10.424,20.8047 8.42402,17.638 12.5,10.5 Z M 13.5,12.5 C 11.3948,16.9771 12.7282,18.8104 17.5,18C 19.4919,13.848 18.1585,12.0146 13.5,12.5 Z"/></g>
</svg>
