<?xml version="1.0" encoding="UTF-8"?>
<!DOCTYPE svg PUBLIC "-//W3C//DTD SVG 1.1//EN" "http://www.w3.org/Graphics/SVG/1.1/DTD/svg11.dtd">
<svg xmlns="http://www.w3.org/2000/svg" version="1.1" width="32px" height="32px" style="shape-rendering:geometricPrecision; text-rendering:geometricPrecision; image-rendering:optimizeQuality; fill-rule:evenodd; clip-rule:evenodd" xmlns:xlink="http://www.w3.org/1999/xlink">
<g><path style="opacity:0.887" fill="#507c5c" d="M 1.5,-0.5 C 3.5,-0.5 5.5,-0.5 7.5,-0.5C 5.96462,1.05191 4.13128,2.38525 2,3.5C 1.33333,11.5 1.33333,19.5 2,27.5C 2.5,28 3,28.5 3.5,29C 8.93251,28.8816 13.9325,29.7149 18.5,31.5C 12.8333,31.5 7.16667,31.5 1.5,31.5C 1.16667,30.5 0.5,29.8333 -0.5,29.5C -0.5,20.1667 -0.5,10.8333 -0.5,1.5C 0.5,1.16667 1.16667,0.5 1.5,-0.5 Z"/></g>
<g><path style="opacity:0.881" fill="#507b5c" d="M 11.5,-0.5 C 17.5,-0.5 23.5,-0.5 29.5,-0.5C 29.8333,0.5 30.5,1.16667 31.5,1.5C 31.5,10.8333 31.5,20.1667 31.5,29.5C 30.5,29.8333 29.8333,30.5 29.5,31.5C 27.1667,31.5 24.8333,31.5 22.5,31.5C 24.4079,29.976 26.5746,28.6426 29,27.5C 29.6667,19.5 29.6667,11.5 29,3.5C 28.5,3 28,2.5 27.5,2C 21.7401,2.12229 16.4068,1.28896 11.5,-0.5 Z"/></g>
<g><path style="opacity:0.781" fill="#4e7859" d="M 13.5,4.5 C 24.9972,5.82716 28.4972,11.8272 24,22.5C 21.5978,24.6925 18.7644,26.0259 15.5,26.5C 12.5304,25.768 9.53044,25.6013 6.5,26C 5.98741,22.0102 5.48741,17.8435 5,13.5C 6.01522,8.65427 8.84856,5.65427 13.5,4.5 Z M 13.5,7.5 C 21.5545,7.96649 24.3878,11.9665 22,19.5C 21.3282,15.9704 19.1616,14.6371 15.5,15.5C 16.3629,11.8384 15.0296,9.67177 11.5,9C 12.4158,8.72158 13.0825,8.22158 13.5,7.5 Z M 8.5,11.5 C 9.65547,17.4865 13.3221,20.9865 19.5,22C 16.3348,23.3873 13.1682,23.8873 10,23.5C 7.60095,19.6881 7.10095,15.6881 8.5,11.5 Z"/></g>
<g><path style="opacity:1" fill="#9dc284" d="M 13.5,16.5 C 11.439,15.2486 11.1057,13.5819 12.5,11.5C 12.3886,13.1086 12.722,14.7753 13.5,16.5 Z"/></g>
<g><path style="opacity:1" fill="#9ec384" d="M 13.5,16.5 C 15.4843,17.9605 17.4843,18.6272 19.5,18.5C 16.7892,19.9886 14.7892,19.3219 13.5,16.5 Z"/></g>
</svg>
